<svg xmlns="http://www.w3.org/2000/svg" xmlns:xlink="http://www.w3.org/1999/xlink" id="Layer_1" style="enable-background:new 0 0 128 128;" version="1.1" viewBox="0 0 128 128" xml:space="preserve"><path d="M121.55,40.28c-0.4-0.45-10-11.11-22.42-9.53c-8.65,1.1-16.16,7.78-22.33,19.84c-0.48,0.93-0.42,2,0.07,2.85  c-13.12-9.13-31.49-16.03-45.3-20.37c0.52,10.22,29.17,35.46,18.33,51.43c-0.7,1.03-2.08,1.32-3.13,0.67c0,0-0.01,0-0.01-0.01  c-3.19-1.94-6.19-4.03-8.92-6.22c-0.84-0.68-1.89-0.68-2.88-0.49c-0.7,0.14-26.28,4.3-26.28,4.3c-1.63,0.29-2.72,1.84-2.43,3.48  c1.68,9.54,14.22,30.15,29.66,35.19c0.3,0.1,0.62,0.15,0.93,0.15c0.72,0,1.42-0.26,1.97-0.74c2.57-2.24,10.44-8.26,15.98-9.24  c3.42-0.6,6.63-1.1,9.74-1.57c16.21-2.49,29.01-4.45,38.57-18.4c7.91-11.54,9.93-22.87,11.55-31.98c1.47-8.27,2.47-13.03,5.95-14.65  c0.86-0.4,1.48-1.18,1.67-2.11C122.44,41.95,122.18,40.99,121.55,40.28z" fill="#ffffff"/><g><path d="M23.5,71.48c-0.92,0-1.82-0.42-2.41-1.21C5.4,49.11,9.09,28.05,9.25,27.16c0.15-0.8,0.62-1.51,1.3-1.96   c0.68-0.45,1.51-0.6,2.31-0.42c0.52,0.12,12.83,2.91,28,8.2c20.54,7.16,35.63,15.12,44.87,23.66c1.22,1.12,1.29,3.02,0.17,4.24   s-3.02,1.29-4.24,0.17C64.1,44.83,26.24,34.33,14.85,31.44c-0.31,6.27,0.38,20.84,11.06,35.25c0.99,1.33,0.71,3.21-0.62,4.2   C24.75,71.29,24.13,71.48,23.5,71.48z" fill="#ffffff"/></g><g><path d="M73.71,38.57c-0.56,0-1.13-0.16-1.63-0.49C61.21,31.02,43.89,23.52,37.14,20.7c-0.12,0.46-0.25,1.01-0.39,1.67   c-0.35,1.62-1.95,2.65-3.57,2.3c-1.62-0.35-2.65-1.95-2.29-3.57c1.06-4.91,1.88-7.01,4.14-7.31c0.51-0.07,1.03-0.01,1.52,0.19   c1,0.4,24.64,9.87,38.81,19.09c1.39,0.9,1.78,2.76,0.88,4.15C75.66,38.09,74.7,38.57,73.71,38.57z" fill="#ffffff"/></g></svg>